<svg version="1.1" id="Layer_1" xmlns="http://www.w3.org/2000/svg" xmlns:xlink="http://www.w3.org/1999/xlink" x="0px" y="0px"
	 width="100%" viewBox="0 0 1004 998" enable-background="new 0 0 1004 998" xml:space="preserve">
<path fill="#ffffff" opacity="0.000000" stroke="none" 
	d="
M546.000000,999.000000 
	C364.354218,999.000000 182.708420,999.000000 1.062629,999.000000 
	C1.041752,998.854248 1.002572,998.708435 1.002571,998.562683 
	C1.000009,666.100891 1.000000,333.639099 1.000000,1.088659 
	C335.569061,1.088659 670.138184,1.088659 1004.853638,1.088659 
	C1004.853638,333.666626 1004.853638,666.333313 1004.853638,999.000000 
	C980.243591,999.000000 955.579773,999.000000 930.360535,998.672180 
	C896.753906,955.815613 863.702637,913.286926 830.669434,870.781433 
	C827.403320,873.149719 824.750610,875.073303 821.938232,876.690186 
	C806.764404,853.755981 791.834656,831.071838 776.712158,808.516907 
	C762.226196,786.911499 747.886963,765.192749 732.784973,744.021973 
	C725.996521,734.505676 720.701904,725.093445 720.815247,713.015198 
	C720.875122,706.631714 719.641663,700.223877 718.833862,693.847046 
	C717.284241,681.613831 714.808472,669.435913 714.189819,657.160828 
	C713.171753,636.958862 709.332764,617.267761 704.194214,597.906860 
	C698.598877,576.825012 691.997620,555.962158 684.774780,535.375671 
	C679.127258,519.279236 670.999878,504.371124 658.140198,492.440521 
	C653.720520,488.340210 650.209106,483.186768 646.647766,478.251007 
	C639.419800,468.233612 632.671692,457.864960 625.307068,447.952240 
	C612.932251,431.295654 600.419373,414.733643 587.607605,398.412079 
	C577.016113,384.919098 565.987122,371.765839 555.007507,358.582367 
	C544.769653,346.289581 534.341370,334.155426 523.999634,321.485870 
	C524.003723,249.041428 523.930115,177.062408 524.053650,105.083717 
	C524.089050,84.476219 506.776733,65.678596 484.730011,65.790504 
	C390.759949,66.267525 296.786011,66.042603 202.813614,65.953522 
	C183.312943,65.935043 166.055832,83.737556 166.033691,103.001213 
	C165.917999,203.638184 166.001083,304.275391 165.580505,404.945709 
	C151.193710,406.777313 138.674271,411.456940 129.578720,422.872375 
	C125.985947,427.381561 122.506256,431.981964 119.025375,436.578949 
	C108.359642,450.664581 99.195938,465.367493 99.583435,484.182526 
	C101.090073,495.569519 108.402359,503.032349 117.997032,506.934326 
	C123.427902,509.142944 130.096268,509.972015 136.985962,508.362640 
	C147.501541,505.906342 156.827621,501.519531 165.900269,496.498138 
	C165.939545,520.271973 165.941360,543.580627 165.515442,566.927002 
	C154.796844,567.289490 145.723038,570.769226 138.490982,578.122559 
	C134.606674,582.072021 131.391251,586.679382 127.581802,591.151001 
	C126.533127,592.369873 125.773102,593.425232 125.020744,594.485901 
	C115.137283,608.420471 110.273636,623.958740 110.096321,641.343262 
	C109.863747,643.429382 109.259834,645.273254 109.592270,646.929199 
	C112.935547,663.582397 123.246956,671.784729 140.827179,672.379395 
	C140.214676,673.113464 139.747589,673.584900 139.203003,673.936157 
	C130.403214,679.611511 121.528419,685.230896 124.082260,698.384277 
	C123.817207,700.662354 123.000053,702.786011 123.527626,704.494324 
	C126.768013,714.986816 133.050369,723.975830 141.273636,730.672546 
	C146.445755,734.884521 153.638672,737.592529 161.200897,737.137146 
	C163.014633,737.027893 164.915497,738.365417 166.838898,739.447266 
	C167.612701,746.537109 169.815689,752.516418 174.171188,757.820618 
	C182.139206,767.524048 191.920624,773.064453 204.747299,773.048767 
	C248.491837,772.995178 292.236542,773.083008 336.132446,773.431152 
	C337.922821,776.913879 339.251282,780.297302 341.265594,783.205872 
	C345.512878,789.338623 350.359406,795.060486 354.531830,801.240173 
	C365.652008,817.709961 378.133209,833.104797 392.487061,846.766663 
	C402.340607,856.145264 412.888397,865.014099 424.096710,872.693970 
	C437.981323,882.207703 452.141815,891.511230 467.676331,898.331665 
	C475.253235,901.658264 483.172791,904.347168 490.385162,908.325562 
	C499.550598,913.381226 507.979828,919.631042 513.665955,928.837646 
	C518.401855,936.505676 523.855957,943.802551 527.868225,951.825745 
	C532.274109,960.636047 535.499451,970.049133 539.037415,979.276917 
	C541.532471,985.784485 543.691101,992.421021 546.000000,999.000000 
z"/>
<path fill="#E8B89F" opacity="1.000000" stroke="none" 
	d="
M523.996948,321.951416 
	C534.341370,334.155426 544.769653,346.289581 555.007507,358.582367 
	C565.987122,371.765839 577.016113,384.919098 587.607605,398.412079 
	C600.419373,414.733643 612.932251,431.295654 625.307068,447.952240 
	C632.671692,457.864960 639.419800,468.233612 646.647766,478.251007 
	C650.209106,483.186768 653.720520,488.340210 658.140198,492.440521 
	C670.999878,504.371124 679.127258,519.279236 684.774780,535.375671 
	C691.997620,555.962158 698.598877,576.825012 704.194214,597.906860 
	C709.332764,617.267761 713.171753,636.958862 714.189819,657.160828 
	C714.808472,669.435913 717.284241,681.613831 718.833862,693.847046 
	C719.641663,700.223877 720.875122,706.631714 720.815247,713.015198 
	C720.701904,725.093445 725.996521,734.505676 732.784973,744.021973 
	C747.886963,765.192749 762.226196,786.911499 776.712158,808.516907 
	C791.834656,831.071838 806.764404,853.755981 821.780151,876.992004 
	C820.455261,878.853027 819.217529,880.218628 817.789246,881.341858 
	C776.965515,913.448608 736.101990,945.504761 695.299011,977.637756 
	C686.427124,984.624512 677.760925,991.872375 669.000000,999.000000 
	C652.979126,999.000000 636.958191,999.000000 620.390869,998.636475 
	C612.354492,977.073853 604.779480,955.904297 597.403015,934.665833 
	C592.094421,919.381409 589.721558,903.606201 591.102112,887.447754 
	C592.277222,873.693787 598.502563,862.455261 608.953491,853.379089 
	C610.698303,851.863770 611.215820,848.935242 612.300415,846.659790 
	C609.820007,846.167175 607.340210,845.671570 604.857849,845.188965 
	C604.703918,845.159058 604.528564,845.225403 604.365417,845.258240 
	C587.450500,848.660950 573.424683,842.907471 561.710632,831.093750 
	C543.399048,812.626221 532.569397,789.840454 528.412537,764.632263 
	C525.651794,747.890442 526.064331,730.532593 526.059326,713.450195 
	C526.051331,686.023926 529.669739,659.046997 538.245911,632.834961 
	C544.328613,614.244141 551.001770,595.996643 562.844482,580.097046 
	C566.149475,575.659973 565.602539,573.366516 561.307373,569.984192 
	C548.358093,559.787231 535.257996,549.773315 522.519714,539.318787 
	C502.387787,522.796265 483.694702,504.792328 468.170959,483.754059 
	C463.374298,477.253448 459.026123,470.421936 454.324646,463.524902 
	C453.981628,464.270935 453.425140,464.968231 453.356964,465.710358 
	C452.794525,471.837524 448.838776,473.154877 443.547516,473.004181 
	C439.054260,472.876251 434.531616,472.823090 430.056580,473.175568 
	C409.738159,474.776001 389.422302,474.720886 369.254242,471.877014 
	C347.410797,468.796875 326.885712,461.496124 308.181427,449.692627 
	C298.734924,443.731293 293.669373,434.781189 292.964752,423.497772 
	C292.872589,422.021912 292.462036,420.565918 292.240295,418.734222 
	C294.111267,412.039337 296.379059,406.096252 304.458313,404.791168 
	C321.650238,403.341370 338.470123,401.990021 355.298798,400.758759 
	C364.508698,400.084900 373.733429,399.613922 383.236572,399.199158 
	C401.026672,394.361267 418.531677,389.375702 436.467712,384.401001 
	C440.972168,383.629852 445.045532,382.847809 449.561981,382.077271 
	C453.645416,381.732422 457.285767,381.376129 461.363678,381.073792 
	C464.107849,381.329224 466.603455,381.029877 468.689056,381.816986 
	C478.855927,385.653931 488.913269,389.781250 499.289062,394.016418 
	C505.394073,397.652283 511.219391,401.077576 517.257080,404.725922 
	C519.343323,405.960876 521.217163,406.972717 523.356934,408.181946 
	C543.084045,420.541931 561.950073,433.730896 583.191162,443.172760 
	C583.021790,441.396057 582.424255,440.125580 581.514709,439.144318 
	C571.574463,428.420166 561.284546,418.002014 551.713684,406.959808 
	C545.145264,399.381622 536.568909,393.360504 533.046509,383.265411 
	C526.156982,363.520325 524.958557,342.989166 524.165039,322.256592 
	C524.156189,322.135315 523.996948,321.951416 523.996948,321.951416 
M363.377411,432.601776 
	C363.596802,432.278748 363.816193,431.955750 364.373505,431.143372 
	C365.250244,429.833466 366.126984,428.523560 367.550873,426.771759 
	C368.878143,424.673279 370.306793,422.631287 371.513092,420.465454 
	C374.742432,414.667480 377.876434,408.816406 380.906219,403.247620 
	C377.730316,403.247620 373.444672,403.247620 368.206329,403.154449 
	C359.753510,403.433563 351.270569,403.359070 342.854950,404.075226 
	C330.467987,405.129395 318.107117,406.586639 305.788879,408.266388 
	C303.433289,408.587585 301.326447,410.732727 298.578094,412.008087 
	C297.476074,413.751953 295.795532,415.366547 295.371887,417.262024 
	C293.505829,425.611115 297.688171,438.992767 308.338531,442.001648 
	C323.365509,446.246918 338.555939,447.033783 353.260010,440.847809 
	C356.957977,439.292084 359.775085,435.642609 363.029266,433.004883 
	C363.029266,433.004883 362.972015,433.019501 363.377411,432.601776 
M585.489929,444.534943 
	C585.489929,444.534943 585.465332,444.480255 585.489929,444.534943 
z"/>
<path fill="#DB9880" opacity="1.000000" stroke="none" 
	d="
M292.198975,419.100739 
	C292.462036,420.565918 292.872589,422.021912 292.964752,423.497772 
	C293.669373,434.781189 298.734924,443.731293 308.181427,449.692627 
	C326.885712,461.496124 347.410797,468.796875 369.254242,471.877014 
	C389.422302,474.720886 409.738159,474.776001 430.056580,473.175568 
	C434.531616,472.823090 439.054260,472.876251 443.547516,473.004181 
	C448.838776,473.154877 452.794525,471.837524 453.356964,465.710358 
	C453.425140,464.968231 453.981628,464.270935 454.324646,463.524902 
	C459.026123,470.421936 463.374298,477.253448 468.170959,483.754059 
	C483.694702,504.792328 502.387787,522.796265 522.519714,539.318787 
	C535.257996,549.773315 548.358093,559.787231 561.307373,569.984192 
	C565.602539,573.366516 566.149475,575.659973 562.844482,580.097046 
	C551.001770,595.996643 544.328613,614.244141 538.245911,632.834961 
	C529.669739,659.046997 526.051331,686.023926 526.059326,713.450195 
	C526.064331,730.532593 525.651794,747.890442 528.412537,764.632263 
	C532.569397,789.840454 543.399048,812.626221 561.710632,831.093750 
	C573.424683,842.907471 587.450500,848.660950 604.365417,845.258240 
	C604.528564,845.225403 604.703918,845.159058 604.857849,845.188965 
	C607.340210,845.671570 609.820007,846.167175 612.300415,846.659790 
	C611.215820,848.935242 610.698303,851.863770 608.953491,853.379089 
	C598.502563,862.455261 592.277222,873.693787 591.102112,887.447754 
	C589.721558,903.606201 592.094421,919.381409 597.403015,934.665833 
	C604.779480,955.904297 612.354492,977.073853 619.922241,998.636475 
	C595.645752,999.000000 571.291565,999.000000 546.468628,999.000000 
	C543.691101,992.421021 541.532471,985.784485 539.037415,979.276917 
	C535.499451,970.049133 532.274109,960.636047 527.868225,951.825745 
	C523.855957,943.802551 518.401855,936.505676 513.665955,928.837646 
	C507.979828,919.631042 499.550598,913.381226 490.385162,908.325562 
	C483.172791,904.347168 475.253235,901.658264 467.676331,898.331665 
	C452.141815,891.511230 437.981323,882.207703 424.096710,872.693970 
	C412.888397,865.014099 402.340607,856.145264 392.487061,846.766663 
	C378.133209,833.104797 365.652008,817.709961 354.531830,801.240173 
	C350.359406,795.060486 345.512878,789.338623 341.265594,783.205872 
	C339.251282,780.297302 337.922821,776.913879 336.600281,773.389526 
	C339.576691,773.008301 342.236450,772.961548 344.896240,772.961243 
	C387.957764,772.956055 431.019348,772.922302 474.080688,773.009460 
	C478.388123,773.018188 481.411469,772.296448 480.964935,766.690796 
	C485.663818,739.850281 490.223541,713.402832 494.878845,686.562134 
	C501.305786,654.799683 508.127991,623.553040 518.448425,592.872803 
	C519.709229,590.394104 520.724487,588.159607 521.755188,585.932251 
	C524.244507,580.553040 523.653198,578.748108 518.186768,575.430176 
	C511.673981,569.473389 505.361633,563.784790 498.906738,557.787231 
	C483.983063,540.429565 469.236633,523.350525 454.363556,506.382538 
	C452.979675,504.803680 450.845673,502.987976 448.970306,502.882996 
	C438.701141,502.308228 428.403992,502.233368 417.709717,501.849487 
	C411.737030,501.197174 406.171112,500.682129 400.218750,500.082520 
	C392.556458,498.916779 385.280518,497.835602 377.679565,496.591614 
	C365.312744,492.905792 353.270935,489.382721 340.949036,485.644958 
	C338.705261,484.522400 336.715210,483.667267 334.782013,482.698639 
	C314.072174,472.322021 296.293793,459.251617 290.928040,434.366028 
	C291.350861,428.976746 291.774902,424.038727 292.198975,419.100739 
M419.250427,783.700867 
	C414.431732,785.510803 409.493805,787.060608 404.826202,789.200195 
	C399.651031,791.572449 399.523438,792.824280 402.840546,797.433167 
	C420.095123,821.406555 444.048859,835.641541 471.590637,844.590942 
	C476.295502,846.119751 476.923553,845.147827 476.914825,840.257874 
	C476.880615,821.162048 476.793854,802.056458 477.398865,782.975830 
	C477.554840,778.057129 476.396637,776.470886 471.899689,777.022644 
	C454.608154,779.144348 437.323944,781.325745 419.250427,783.700867 
z"/>
<path fill="#F1F1F1" opacity="1.000000" stroke="none" 
	d="
M669.468628,999.000000 
	C677.760925,991.872375 686.427124,984.624512 695.299011,977.637756 
	C736.101990,945.504761 776.965515,913.448608 817.789246,881.341858 
	C819.217529,880.218628 820.455261,878.853027 821.939880,877.298584 
	C824.750610,875.073303 827.403320,873.149719 830.669434,870.781433 
	C863.702637,913.286926 896.753906,955.815613 929.902588,998.672180 
	C843.312439,999.000000 756.624878,999.000000 669.468628,999.000000 
z"/>
<path fill="#89949B" opacity="1.000000" stroke="none" 
	d="
M480.825775,767.083862 
	C481.411469,772.296448 478.388123,773.018188 474.080688,773.009460 
	C431.019348,772.922302 387.957764,772.956055 344.896240,772.961243 
	C342.236450,772.961548 339.576691,773.008301 336.449036,773.075195 
	C292.236542,773.083008 248.491837,772.995178 204.747299,773.048767 
	C191.920624,773.064453 182.139206,767.524048 174.171188,757.820618 
	C169.815689,752.516418 167.612701,746.537109 166.896210,738.979248 
	C166.884415,683.308167 166.889053,628.514648 166.832214,573.721252 
	C166.829849,571.443542 166.252594,569.166565 165.943176,566.889221 
	C165.941360,543.580627 165.939545,520.271973 166.061615,496.109863 
	C166.412033,493.623627 166.833496,491.991272 166.836044,490.358246 
	C166.877960,463.595734 166.884445,436.833069 166.824020,410.070618 
	C166.820435,408.483582 166.184006,406.897980 165.850922,405.197021 
	C165.859772,405.082306 166.015045,404.912506 166.015045,404.912506 
	C166.001083,304.275391 165.917999,203.638184 166.033691,103.001213 
	C166.055832,83.737556 183.312943,65.935043 202.813614,65.953522 
	C296.786011,66.042603 390.759949,66.267525 484.730011,65.790504 
	C506.776733,65.678596 524.089050,84.476219 524.053650,105.083717 
	C523.930115,177.062408 524.003723,249.041428 523.999634,321.485870 
	C523.996948,321.951416 524.156189,322.135315 523.943481,322.572144 
	C523.549683,325.140137 523.216125,327.270905 523.210632,329.402496 
	C523.142883,355.596466 523.123108,381.790527 523.091003,407.984589 
	C521.217163,406.972717 519.343323,405.960876 517.494446,404.344177 
	C517.639709,402.584351 517.864990,401.429413 517.865295,400.274384 
	C517.892883,302.285492 517.988953,204.296341 517.706787,106.308273 
	C517.689392,100.261665 515.751648,93.642067 512.848572,88.298988 
	C506.164459,75.996849 494.808472,71.656097 481.035156,71.678169 
	C390.378937,71.823494 299.722351,71.752495 209.065887,71.758080 
	C207.233490,71.758194 205.398743,71.785126 203.569061,71.877808 
	C188.993057,72.616127 175.944427,83.647209 173.248718,97.924911 
	C172.390198,102.472046 172.236069,107.205368 172.235657,111.853531 
	C172.225174,228.336121 172.282715,344.818726 172.318222,461.301300 
	C172.331940,506.291656 172.306870,551.282043 172.325562,596.272400 
	C172.344269,641.266846 172.412949,686.261292 172.415741,731.255737 
	C172.416214,738.924255 173.725922,746.207458 178.275131,752.559814 
	C185.515274,762.669678 195.416840,767.142883 207.857574,767.129150 
	C298.846863,767.028870 389.836365,767.080261 480.825775,767.083862 
z"/>
<path fill="#E8B89F" opacity="1.000000" stroke="none" 
	d="
M99.792389,484.022247 
	C99.195938,465.367493 108.359642,450.664581 119.025375,436.578949 
	C122.506256,431.981964 125.985947,427.381561 129.578720,422.872375 
	C138.674271,411.456940 151.193710,406.777313 165.580505,404.945709 
	C166.015045,404.912506 165.859772,405.082306 165.808105,405.517822 
	C164.826782,406.817352 164.027267,407.920990 162.947006,408.507629 
	C153.800140,413.474396 152.071533,418.561584 155.418884,428.264160 
	C157.633713,434.683960 159.861404,441.313293 160.552002,448.006775 
	C163.085785,472.565002 157.630173,489.111969 132.158386,496.166840 
	C117.975723,500.095032 110.152702,497.642944 101.487274,485.844635 
	C100.999474,485.180511 100.360825,484.627167 99.792389,484.022247 
z"/>
<path fill="#DA9982" opacity="1.000000" stroke="none" 
	d="
M165.515442,566.927002 
	C166.252594,569.166565 166.829849,571.443542 166.832214,573.721252 
	C166.889053,628.514648 166.884415,683.308167 166.833603,738.569580 
	C164.915497,738.365417 163.014633,737.027893 161.200897,737.137146 
	C153.638672,737.592529 146.445755,734.884521 141.273636,730.672546 
	C133.050369,723.975830 126.768013,714.986816 123.527626,704.494324 
	C123.000053,702.786011 123.817207,700.662354 124.227921,698.710083 
	C124.891678,700.286255 125.226456,701.925781 125.807602,703.472717 
	C129.362808,712.936646 136.899780,717.020996 148.707016,715.951477 
	C155.233292,715.360229 160.857651,709.722778 161.472198,700.885803 
	C162.112915,691.672668 161.266663,682.344360 160.851135,673.076172 
	C160.709213,669.910461 158.836014,669.128052 155.621017,669.844727 
	C150.801071,670.919373 145.838470,671.354126 140.936523,672.060913 
	C123.246956,671.784729 112.935547,663.582397 109.592270,646.929199 
	C109.259834,645.273254 109.863747,643.429382 110.304825,641.612061 
	C111.456459,643.521362 112.278160,645.519836 113.226158,647.456482 
	C117.610008,656.412354 125.211868,659.861023 134.757721,660.026428 
	C143.808777,660.183167 149.675735,655.581482 153.674835,647.831787 
	C160.012314,635.550415 160.177765,622.466492 158.117050,609.368103 
	C157.207901,603.589355 154.824020,597.841980 152.113571,592.594971 
	C148.195709,585.010437 141.423279,583.530945 133.993622,587.700439 
	C131.974319,588.833557 129.914978,589.895325 127.874023,590.989868 
	C131.391251,586.679382 134.606674,582.072021 138.490982,578.122559 
	C145.723038,570.769226 154.796844,567.289490 165.515442,566.927002 
z"/>
<path fill="#E8B89F" opacity="1.000000" stroke="none" 
	d="
M127.581802,591.151001 
	C129.914978,589.895325 131.974319,588.833557 133.993622,587.700439 
	C141.423279,583.530945 148.195709,585.010437 152.113571,592.594971 
	C154.824020,597.841980 157.207901,603.589355 158.117050,609.368103 
	C160.177765,622.466492 160.012314,635.550415 153.674835,647.831787 
	C149.675735,655.581482 143.808777,660.183167 134.757721,660.026428 
	C125.211868,659.861023 117.610008,656.412354 113.226158,647.456482 
	C112.278160,645.519836 111.456459,643.521362 110.368065,641.282593 
	C110.273636,623.958740 115.137283,608.420471 125.020744,594.485901 
	C125.773102,593.425232 126.533127,592.369873 127.581802,591.151001 
z"/>
<path fill="#DA9982" opacity="1.000000" stroke="none" 
	d="
M99.583435,484.182526 
	C100.360825,484.627167 100.999474,485.180511 101.487274,485.844635 
	C110.152702,497.642944 117.975723,500.095032 132.158386,496.166840 
	C157.630173,489.111969 163.085785,472.565002 160.552002,448.006775 
	C159.861404,441.313293 157.633713,434.683960 155.418884,428.264160 
	C152.071533,418.561584 153.800140,413.474396 162.947006,408.507629 
	C164.027267,407.920990 164.826782,406.817352 165.799255,405.632538 
	C166.184006,406.897980 166.820435,408.483582 166.824020,410.070618 
	C166.884445,436.833069 166.877960,463.595734 166.836044,490.358246 
	C166.833496,491.991272 166.412033,493.623627 166.024139,495.644592 
	C156.827621,501.519531 147.501541,505.906342 136.985962,508.362640 
	C130.096268,509.972015 123.427902,509.142944 117.997032,506.934326 
	C108.402359,503.032349 101.090073,495.569519 99.583435,484.182526 
z"/>
<path fill="#E8B89F" opacity="1.000000" stroke="none" 
	d="
M140.827179,672.379456 
	C145.838470,671.354126 150.801071,670.919373 155.621017,669.844727 
	C158.836014,669.128052 160.709213,669.910461 160.851135,673.076172 
	C161.266663,682.344360 162.112915,691.672668 161.472198,700.885803 
	C160.857651,709.722778 155.233292,715.360229 148.707016,715.951477 
	C136.899780,717.020996 129.362808,712.936646 125.807602,703.472717 
	C125.226456,701.925781 124.891678,700.286255 124.297363,698.363647 
	C121.528419,685.230896 130.403214,679.611511 139.203003,673.936157 
	C139.747589,673.584900 140.214676,673.113464 140.827179,672.379456 
z"/>
<path fill="#3B4147" opacity="1.000000" stroke="none" 
	d="
M480.964935,766.690796 
	C389.836365,767.080261 298.846863,767.028870 207.857574,767.129150 
	C195.416840,767.142883 185.515274,762.669678 178.275131,752.559814 
	C173.725922,746.207458 172.416214,738.924255 172.415741,731.255737 
	C172.412949,686.261292 172.344269,641.266846 172.325562,596.272400 
	C172.306870,551.282043 172.331940,506.291656 172.318222,461.301300 
	C172.282715,344.818726 172.225174,228.336121 172.235657,111.853531 
	C172.236069,107.205368 172.390198,102.472046 173.248718,97.924911 
	C175.944427,83.647209 188.993057,72.616127 203.569061,71.877808 
	C205.398743,71.785126 207.233490,71.758194 209.065887,71.758080 
	C299.722351,71.752495 390.378937,71.823494 481.035156,71.678169 
	C494.808472,71.656097 506.164459,75.996849 512.848572,88.298988 
	C515.751648,93.642067 517.689392,100.261665 517.706787,106.308273 
	C517.988953,204.296341 517.892883,302.285492 517.865295,400.274384 
	C517.864990,401.429413 517.639709,402.584351 517.282104,404.121094 
	C511.219391,401.077576 505.394073,397.652283 499.290771,393.560669 
	C499.005219,348.401611 498.996094,303.908905 498.990692,259.416168 
	C498.987061,229.420944 499.014038,199.425674 498.970764,169.430511 
	C498.959381,161.535782 495.556152,158.184158 487.746033,158.039749 
	C487.079681,158.027420 486.412964,158.033661 485.746399,158.033661 
	C391.594727,158.033432 297.443024,158.032867 203.291336,158.038101 
	C201.625977,158.038193 199.942795,157.966034 198.298630,158.172272 
	C193.548294,158.768143 190.496017,161.960419 190.036179,166.747620 
	C189.893250,168.235611 189.942490,169.744263 189.942444,171.243454 
	C189.938797,269.894409 189.936737,368.545380 189.953873,467.196350 
	C189.954269,469.522369 190.174103,471.848297 190.225464,474.480347 
	C190.085602,475.199371 190.011856,475.612274 189.852356,476.126831 
	C189.641953,476.479370 189.643097,476.729401 189.755203,477.448242 
	C189.763641,525.948608 189.786850,573.979126 189.773514,622.353638 
	C189.805634,630.850647 189.858582,639.003906 189.947372,647.156799 
	C190.034958,655.200806 192.781143,658.090149 200.732559,658.091064 
	C296.595734,658.102478 392.458923,658.076294 488.537354,658.113892 
	C488.752625,658.167847 489.185944,658.263977 489.194641,658.630249 
	C491.063324,668.316101 492.923309,677.635742 494.783264,686.955322 
	C490.223541,713.402832 485.663818,739.850281 480.964935,766.690796 
M361.428162,725.926575 
	C362.466827,724.629517 363.630768,723.412964 364.524414,722.022705 
	C371.761932,710.762573 367.883209,695.387878 356.278748,689.162842 
	C344.020569,682.586975 329.557617,687.455872 323.945984,700.047546 
	C319.679321,709.621338 322.491913,721.302795 330.586243,727.626465 
	C339.731415,734.771057 350.692993,734.336548 361.428162,725.926575 
M387.835449,121.841499 
	C391.381622,121.267250 394.042694,119.463066 393.556091,115.628830 
	C393.061554,111.732040 389.791443,110.974373 386.374573,110.982422 
	C385.708405,110.983986 385.042267,110.969536 384.376099,110.969521 
	C358.061676,110.968987 331.747253,110.967155 305.432831,110.975609 
	C304.102234,110.976036 302.392090,110.561150 301.518616,111.217674 
	C299.593048,112.665031 297.033600,114.527107 296.759430,116.501404 
	C296.553192,117.986412 299.320587,120.140450 301.120209,121.538361 
	C302.000763,122.222328 303.692047,121.960663 305.016388,121.960670 
	C332.329773,121.960938 359.643127,121.937225 387.835449,121.841499 
z"/>
<path fill="#454793" opacity="1.000000" stroke="none" 
	d="
M190.291580,474.174286 
	C190.174103,471.848297 189.954269,469.522369 189.953873,467.196350 
	C189.936737,368.545380 189.938797,269.894409 189.942444,171.243454 
	C189.942490,169.744263 189.893250,168.235611 190.036179,166.747620 
	C190.496017,161.960419 193.548294,158.768143 198.298630,158.172272 
	C199.942795,157.966034 201.625977,158.038193 203.291336,158.038101 
	C297.443024,158.032867 391.594727,158.033432 485.746399,158.033661 
	C486.412964,158.033661 487.079681,158.027420 487.746033,158.039749 
	C495.556152,158.184158 498.959381,161.535782 498.970764,169.430511 
	C499.014038,199.425674 498.987061,229.420944 498.990692,259.416168 
	C498.996094,303.908905 499.005219,348.401611 499.011047,393.350098 
	C488.913269,389.781250 478.855927,385.653931 468.689056,381.816986 
	C466.603455,381.029877 464.107849,381.329224 461.295166,380.720947 
	C460.538696,378.919983 460.288239,377.525848 460.306763,375.929688 
	C471.564392,365.789978 482.494202,355.785980 493.578064,345.955627 
	C496.839172,343.063354 498.082611,339.826050 498.070648,335.463684 
	C497.948059,290.802490 497.999725,246.140823 497.979950,201.479279 
	C497.979187,199.779510 497.746979,198.079834 497.595459,196.009064 
	C496.428558,196.601273 495.916199,196.738281 495.568237,197.055573 
	C476.008392,214.888901 456.477020,232.753479 436.909576,250.578430 
	C423.619415,262.685089 410.224640,274.677368 396.981415,286.834930 
	C386.561188,296.400909 376.301086,306.141327 365.645569,315.844116 
	C364.886749,315.899750 364.452271,315.915527 363.704834,315.702576 
	C312.696777,305.913086 264.944489,336.021606 252.457428,385.240601 
	C249.377136,397.381927 249.810318,409.639191 249.796799,422.041473 
	C245.981781,425.098114 242.501114,428.053680 238.835693,430.656677 
	C233.037064,402.820892 237.070801,376.772858 251.659531,352.871033 
	C272.634155,318.506775 304.173492,301.646729 344.012451,299.750153 
	C344.012451,295.841156 344.012451,292.450928 344.012451,288.777740 
	C341.918793,288.777740 340.267822,288.691864 338.627930,288.790314 
	C300.113892,291.103210 269.184082,307.765198 246.881531,339.122040 
	C225.140945,369.688751 219.574539,403.601624 229.111740,440.155334 
	C229.049316,440.383545 228.919159,440.837677 228.628418,441.011505 
	C221.710114,447.137177 215.156815,453.174561 208.432724,459.015289 
	C202.484467,464.182037 196.346039,469.129822 190.291580,474.174286 
z"/>
<path fill="#5A5CB4" opacity="1.000000" stroke="none" 
	d="
M365.969849,315.804291 
	C376.301086,306.141327 386.561188,296.400909 396.981415,286.834930 
	C410.224640,274.677368 423.619415,262.685089 436.909576,250.578430 
	C456.477020,232.753479 476.008392,214.888901 495.568237,197.055573 
	C495.916199,196.738281 496.428558,196.601273 497.595459,196.009064 
	C497.746979,198.079834 497.979187,199.779510 497.979950,201.479279 
	C497.999725,246.140823 497.948059,290.802490 498.070648,335.463684 
	C498.082611,339.826050 496.839172,343.063354 493.578064,345.955627 
	C482.494202,355.785980 471.564392,365.789978 460.110229,375.603027 
	C453.627380,355.817719 443.950958,338.366150 429.460876,324.224060 
	C426.531494,327.102692 423.997101,329.593201 421.312683,332.231110 
	C434.843140,346.437286 444.591736,362.807983 449.118927,382.065765 
	C445.045532,382.847809 440.972168,383.629852 436.398468,383.994873 
	C425.225067,347.948608 401.714630,325.564789 365.969849,315.804291 
z"/>
<path fill="#EAEAEA" opacity="1.000000" stroke="none" 
	d="
M365.645569,315.844116 
	C401.714630,325.564789 425.225067,347.948608 435.967407,383.984039 
	C418.531677,389.375702 401.026672,394.361267 383.375061,398.835052 
	C386.202240,392.483612 385.549835,387.048309 381.196564,382.183563 
	C377.217529,377.737061 371.983978,376.700226 366.580139,378.309479 
	C357.725769,380.946320 355.617767,387.967102 356.688385,396.824554 
	C334.157593,393.320404 312.309387,389.922424 290.377167,386.511383 
	C290.010437,393.701447 292.722076,398.610413 298.100220,399.730316 
	C301.463715,400.430695 303.287659,401.819031 304.089935,404.939697 
	C296.379059,406.096252 294.111267,412.039337 292.240295,418.734222 
	C291.774902,424.038727 291.350861,428.976746 290.721344,434.743164 
	C288.940948,445.492157 289.933563,455.084686 294.273010,464.220795 
	C301.239380,478.887329 313.075104,488.813568 326.695953,497.462433 
	C328.580566,499.108490 330.253265,500.487366 331.519897,501.884888 
	C328.412933,501.568146 325.712036,501.232758 322.707397,500.688721 
	C314.823242,497.577942 306.775482,495.519470 299.745087,491.624603 
	C272.352173,476.448883 255.578201,453.482544 251.044769,421.829620 
	C252.347992,419.924011 253.329819,418.131073 254.750854,416.810822 
	C267.986115,404.514252 281.251038,392.248291 294.629883,380.108551 
	C296.919830,378.030701 299.789642,376.591858 302.606689,375.101959 
	C303.800964,379.662842 312.009155,379.300323 309.123993,386.053986 
	C322.718506,388.164398 335.884521,390.208313 349.050507,392.252228 
	C349.128723,391.867096 349.206940,391.481934 349.285156,391.096771 
	C336.196167,383.332367 323.107147,375.567963 310.127167,367.492798 
	C311.000366,366.113495 311.606842,364.873535 312.553192,364.002960 
	C322.047272,355.268738 331.668762,346.672150 341.109070,337.880676 
	C348.847565,330.674042 356.388977,323.255798 364.017761,315.931335 
	C364.452271,315.915527 364.886749,315.899750 365.645569,315.844116 
M388.472473,393.102173 
	C390.968750,390.905975 393.465027,388.709778 396.623291,385.931183 
	C392.873260,385.058380 390.194427,384.434875 386.769501,383.637726 
	C387.159851,387.272888 387.492340,390.369324 388.472473,393.102173 
z"/>
<path fill="#EECBBB" opacity="1.000000" stroke="none" 
	d="
M367.003723,427.213654 
	C366.126984,428.523560 365.250244,429.833466 363.997864,431.599579 
	C363.405518,432.377014 363.188751,432.698242 362.971985,433.019501 
	C362.972015,433.019501 363.029266,433.004883 362.671997,433.072571 
	C346.873077,442.829193 330.091980,441.586395 313.469604,438.205200 
	C302.060364,435.884399 295.878693,423.447723 299.104828,412.036377 
	C301.326447,410.732727 303.433289,408.587585 305.788879,408.266388 
	C318.107117,406.586639 330.467987,405.129395 342.854950,404.075226 
	C351.270569,403.359070 359.753510,403.433563 368.535156,403.518951 
	C367.942230,408.189209 366.631042,412.458466 366.223236,416.812347 
	C365.903564,420.225128 366.702026,423.742676 367.003723,427.213654 
z"/>
<path fill="#D99881" opacity="1.000000" stroke="none" 
	d="
M523.356934,408.181946 
	C523.123108,381.790527 523.142883,355.596466 523.210632,329.402496 
	C523.216125,327.270905 523.549683,325.140137 523.952393,322.693451 
	C524.958557,342.989166 526.156982,363.520325 533.046509,383.265411 
	C536.568909,393.360504 545.145264,399.381622 551.713684,406.959808 
	C561.284546,418.002014 571.574463,428.420166 581.514709,439.144318 
	C582.424255,440.125580 583.021790,441.396057 583.191162,443.172760 
	C561.950073,433.730896 543.084045,420.541931 523.356934,408.181946 
z"/>
<path fill="#D8404D" opacity="1.000000" stroke="none" 
	d="
M304.458313,404.791168 
	C303.287659,401.819031 301.463715,400.430695 298.100220,399.730316 
	C292.722076,398.610413 290.010437,393.701447 290.377167,386.511383 
	C312.309387,389.922424 334.157593,393.320404 356.688385,396.824554 
	C355.617767,387.967102 357.725769,380.946320 366.580139,378.309479 
	C371.983978,376.700226 377.217529,377.737061 381.196564,382.183563 
	C385.549835,387.048309 386.202240,392.483612 383.089966,398.687378 
	C373.733429,399.613922 364.508698,400.084900 355.298798,400.758759 
	C338.470123,401.990021 321.650238,403.341370 304.458313,404.791168 
z"/>
<path fill="#D53E4D" opacity="1.000000" stroke="none" 
	d="
M449.561981,382.077271 
	C444.591736,362.807983 434.843140,346.437286 421.312683,332.231110 
	C423.997101,329.593201 426.531494,327.102692 429.460876,324.224060 
	C443.950958,338.366150 453.627380,355.817719 459.841248,375.805023 
	C460.288239,377.525848 460.538696,378.919983 460.857635,380.666992 
	C457.285767,381.376129 453.645416,381.732422 449.561981,382.077271 
z"/>
<path fill="#DA9982" opacity="1.000000" stroke="none" 
	d="
M298.841461,412.022217 
	C295.878693,423.447723 302.060364,435.884399 313.469604,438.205200 
	C330.091980,441.586395 346.873077,442.829193 362.655884,433.047791 
	C359.775085,435.642609 356.957977,439.292084 353.260010,440.847809 
	C338.555939,447.033783 323.365509,446.246918 308.338531,442.001648 
	C297.688171,438.992767 293.505829,425.611115 295.371887,417.262024 
	C295.795532,415.366547 297.476074,413.751953 298.841461,412.022217 
z"/>
<path fill="#F4E2D9" opacity="1.000000" stroke="none" 
	d="
M367.277283,426.992706 
	C366.702026,423.742676 365.903564,420.225128 366.223236,416.812347 
	C366.631042,412.458466 367.942230,408.189209 369.011536,403.565552 
	C373.444672,403.247620 377.730316,403.247620 380.906219,403.247620 
	C377.876434,408.816406 374.742432,414.667480 371.513092,420.465454 
	C370.306793,422.631287 368.878143,424.673279 367.277283,426.992706 
z"/>
<path fill="#D99881" opacity="1.000000" stroke="none" 
	d="
M585.477661,444.507599 
	C585.465332,444.480255 585.489929,444.534943 585.477661,444.507599 
z"/>
<path fill="#DA9982" opacity="1.000000" stroke="none" 
	d="
M363.174683,432.810638 
	C363.188751,432.698242 363.405518,432.377014 363.828918,431.844238 
	C363.816193,431.955750 363.596802,432.278748 363.174683,432.810638 
z"/>
<path fill="#2D2E60" opacity="1.000000" stroke="none" 
	d="
M489.185944,658.263977 
	C489.185944,658.263977 488.752625,658.167847 488.460938,657.718384 
	C484.980103,650.351196 482.777954,642.730286 478.435059,636.634521 
	C456.823578,606.300598 440.859711,573.073181 427.002747,538.727356 
	C425.331940,534.585999 422.867859,533.045349 418.733734,532.142334 
	C405.741638,529.304504 392.852600,525.995117 380.209045,522.651367 
	C382.820801,521.580444 385.167511,520.777527 387.470154,519.863708 
	C398.585754,515.452148 409.106171,510.011444 418.116455,501.986786 
	C428.403992,502.233368 438.701141,502.308228 448.970306,502.882996 
	C450.845673,502.987976 452.979675,504.803680 454.363556,506.382538 
	C469.236633,523.350525 483.983063,540.429565 498.896423,558.247559 
	C499.014648,588.127075 499.017426,617.237061 498.975311,646.347107 
	C498.964050,654.125305 496.755341,656.734192 489.185944,658.263977 
z"/>
<path fill="#E8B89F" opacity="1.000000" stroke="none" 
	d="
M419.643707,783.592896 
	C437.323944,781.325745 454.608154,779.144348 471.899689,777.022644 
	C476.396637,776.470886 477.554840,778.057129 477.398865,782.975830 
	C476.793854,802.056458 476.880615,821.162048 476.914825,840.257874 
	C476.923553,845.147827 476.295502,846.119751 471.590637,844.590942 
	C444.048859,835.641541 420.095123,821.406555 402.840546,797.433167 
	C399.523438,792.824280 399.651031,791.572449 404.826202,789.200195 
	C409.493805,787.060608 414.431732,785.510803 419.643707,783.592896 
z"/>
<path fill="#282C2F" opacity="1.000000" stroke="none" 
	d="
M489.194641,658.630249 
	C496.755341,656.734192 498.964050,654.125305 498.975311,646.347107 
	C499.017426,617.237061 499.014648,588.127075 499.038971,558.556641 
	C505.361633,563.784790 511.673981,569.473389 518.092651,575.910217 
	C518.202576,582.145813 518.206238,587.633057 518.209900,593.120361 
	C508.127991,623.553040 501.305786,654.799683 494.878845,686.562134 
	C492.923309,677.635742 491.063324,668.316101 489.194641,658.630249 
z"/>
<path fill="#9C9A9A" opacity="1.000000" stroke="none" 
	d="
M326.484009,497.195251 
	C313.075104,488.813568 301.239380,478.887329 294.273010,464.220795 
	C289.933563,455.084686 288.940948,445.492157 290.722595,435.194458 
	C296.293793,459.251617 314.072174,472.322021 334.782013,482.698639 
	C336.715210,483.667267 338.705261,484.522400 340.604065,485.766785 
	C335.854156,489.800629 331.169098,493.497925 326.484009,497.195251 
z"/>
<path fill="#302F60" opacity="1.000000" stroke="none" 
	d="
M378.004608,496.754395 
	C385.280518,497.835602 392.556458,498.916779 400.014343,500.309967 
	C387.949158,508.551758 374.375946,512.854309 359.778748,515.237671 
	C359.001129,515.142456 358.559479,515.084106 357.848022,514.796509 
	C351.578369,511.526184 345.550140,508.538452 339.611450,505.382233 
	C338.790619,504.945984 338.412994,503.675720 338.304108,502.816193 
	C352.261047,503.438232 365.340240,501.433075 378.004608,496.754395 
z"/>
<path fill="#821F26" opacity="1.000000" stroke="none" 
	d="
M360.114685,515.274597 
	C374.375946,512.854309 387.949158,508.551758 400.400757,500.394531 
	C406.171112,500.682129 411.737030,501.197174 417.709717,501.849487 
	C409.106171,510.011444 398.585754,515.452148 387.470154,519.863708 
	C385.167511,520.777527 382.820801,521.580444 379.916809,522.669434 
	C378.950867,522.890869 378.562469,522.877319 377.876526,522.651245 
	C371.757507,520.050720 365.936096,517.662659 360.114685,515.274597 
z"/>
<path fill="#949293" opacity="1.000000" stroke="none" 
	d="
M377.679565,496.591614 
	C365.340240,501.433075 352.261047,503.438232 337.980042,502.676331 
	C335.430023,502.296661 333.678009,502.081451 331.925964,501.866241 
	C330.253265,500.487366 328.580566,499.108490 326.695923,497.462402 
	C331.169098,493.497925 335.854156,489.800629 340.884216,485.981506 
	C353.270935,489.382721 365.312744,492.905792 377.679565,496.591614 
z"/>
<path fill="#646871" opacity="1.000000" stroke="none" 
	d="
M518.448425,592.872803 
	C518.206238,587.633057 518.202576,582.145813 518.293091,576.178467 
	C523.653198,578.748108 524.244507,580.553040 521.755188,585.932251 
	C520.724487,588.159607 519.709229,590.394104 518.448425,592.872803 
z"/>
<path fill="#454793" opacity="1.000000" stroke="none" 
	d="
M378.174103,522.863770 
	C378.562469,522.877319 378.950867,522.890869 379.631439,522.886353 
	C392.852600,525.995117 405.741638,529.304504 418.733734,532.142334 
	C422.867859,533.045349 425.331940,534.585999 427.002747,538.727356 
	C440.859711,573.073181 456.823578,606.300598 478.435059,636.634521 
	C482.777954,642.730286 484.980103,650.351196 488.245697,657.664429 
	C392.458923,658.076294 296.595734,658.102478 200.732559,658.091064 
	C192.781143,658.090149 190.034958,655.200806 189.947372,647.156799 
	C189.858582,639.003906 189.805634,630.850647 190.098785,622.220459 
	C191.567993,621.010315 192.795883,620.409058 193.764618,619.524109 
	C206.547531,607.846191 219.279419,596.112488 232.054321,584.425781 
	C241.880066,575.437012 251.780014,566.529175 261.590302,557.523560 
	C275.077576,545.142517 288.511292,532.703125 302.193481,520.253052 
	C302.418945,520.217346 302.869812,520.148193 303.146729,520.378784 
	C328.097595,529.414185 353.007416,530.397400 378.174103,522.863770 
z"/>
<path fill="#5A5CB4" opacity="1.000000" stroke="none" 
	d="
M301.967957,520.288696 
	C288.511292,532.703125 275.077576,545.142517 261.590302,557.523560 
	C251.780014,566.529175 241.880066,575.437012 232.054321,584.425781 
	C219.279419,596.112488 206.547531,607.846191 193.764618,619.524109 
	C192.795883,620.409058 191.567993,621.010315 190.135330,621.876587 
	C189.786850,573.979126 189.763641,525.948608 189.812012,477.213593 
	C189.883606,476.509155 189.938110,476.025208 189.938110,476.025208 
	C190.011856,475.612274 190.085602,475.199371 190.225464,474.480347 
	C196.346039,469.129822 202.484467,464.182037 208.432724,459.015289 
	C215.156815,453.174561 221.710114,447.137177 228.813797,441.355652 
	C230.376785,444.657227 231.349594,447.833618 232.568054,450.912781 
	C245.681412,484.051544 269.043976,506.957367 301.967957,520.288696 
z"/>
<path fill="#646871" opacity="1.000000" stroke="none" 
	d="
M361.165314,726.175659 
	C350.692993,734.336548 339.731415,734.771057 330.586243,727.626465 
	C322.491913,721.302795 319.679321,709.621338 323.945984,700.047546 
	C329.557617,687.455872 344.020569,682.586975 356.278748,689.162842 
	C367.883209,695.387878 371.761932,710.762573 364.524414,722.022705 
	C363.630768,723.412964 362.466827,724.629517 361.165314,726.175659 
z"/>
<path fill="#30302D" opacity="1.000000" stroke="none" 
	d="
M387.395996,121.879883 
	C359.643127,121.937225 332.329773,121.960938 305.016388,121.960670 
	C303.692047,121.960663 302.000763,122.222328 301.120209,121.538361 
	C299.320587,120.140450 296.553192,117.986412 296.759430,116.501404 
	C297.033600,114.527107 299.593048,112.665031 301.518616,111.217674 
	C302.392090,110.561150 304.102234,110.976036 305.432831,110.975609 
	C331.747253,110.967155 358.061676,110.968987 384.376099,110.969521 
	C385.042267,110.969536 385.708405,110.983986 386.374573,110.982422 
	C389.791443,110.974373 393.061554,111.732040 393.556091,115.628830 
	C394.042694,119.463066 391.381622,121.267250 387.395996,121.879883 
z"/>
<path fill="#454793" opacity="1.000000" stroke="none" 
	d="
M189.852356,476.126831 
	C189.938110,476.025208 189.883606,476.509155 189.826797,476.743835 
	C189.643097,476.729401 189.641953,476.479370 189.852356,476.126831 
z"/>
<path fill="#E1E1E2" opacity="1.000000" stroke="none" 
	d="
M302.391541,374.857788 
	C299.789642,376.591858 296.919830,378.030701 294.629883,380.108551 
	C281.251038,392.248291 267.986115,404.514252 254.750854,416.810822 
	C253.329819,418.131073 252.347992,419.924011 250.851257,421.754578 
	C250.540070,422.011444 250.131149,421.940399 250.131149,421.940399 
	C249.810318,409.639191 249.377136,397.381927 252.457428,385.240601 
	C264.944489,336.021606 312.696777,305.913086 363.704834,315.702576 
	C356.388977,323.255798 348.847565,330.674042 341.109070,337.880676 
	C331.668762,346.672150 322.047272,355.268738 312.553192,364.002960 
	C311.606842,364.873535 311.000366,366.113495 309.921997,367.523529 
	C309.607819,367.865021 309.193146,367.878143 308.991211,367.574493 
	C307.015869,366.265015 305.242462,365.259186 302.072723,363.461395 
	C302.072723,367.445068 302.072723,370.225098 302.086182,373.319580 
	C302.196930,374.041962 302.294250,374.449890 302.391541,374.857788 
z"/>
<path fill="#C52F3B" opacity="1.000000" stroke="none" 
	d="
M229.174164,439.927155 
	C219.574539,403.601624 225.140945,369.688751 246.881531,339.122040 
	C269.184082,307.765198 300.113892,291.103210 338.627930,288.790314 
	C340.267822,288.691864 341.918793,288.777740 344.012451,288.777740 
	C344.012451,292.450928 344.012451,295.841156 344.012451,299.750153 
	C304.173492,301.646729 272.634155,318.506775 251.659531,352.871033 
	C237.070801,376.772858 233.037064,402.820892 238.777725,430.910522 
	C238.864883,431.686066 238.825241,431.855133 238.476990,432.130493 
	C235.170334,434.800232 232.172256,437.363708 229.174164,439.927155 
z"/>
<path fill="#5C5DB4" opacity="1.000000" stroke="none" 
	d="
M238.785583,432.024231 
	C238.825241,431.855133 238.864883,431.686066 238.962494,431.263123 
	C242.501114,428.053680 245.981781,425.098114 249.796799,422.041473 
	C250.131149,421.940399 250.540070,422.011444 250.733582,422.086487 
	C255.578201,453.482544 272.352173,476.448883 299.745087,491.624603 
	C306.775482,495.519470 314.823242,497.577942 322.525360,500.973999 
	C319.278778,504.698212 315.910431,507.928497 312.179443,511.140533 
	C302.700317,506.793793 292.977905,503.400391 284.582306,497.959595 
	C260.474182,482.336151 245.755600,459.767303 238.785583,432.024231 
z"/>
<path fill="#D53E4D" opacity="1.000000" stroke="none" 
	d="
M238.476990,432.130493 
	C245.755600,459.767303 260.474182,482.336151 284.582306,497.959595 
	C292.977905,503.400391 302.700317,506.793793 312.246552,511.342773 
	C312.676331,511.563324 312.847839,511.949249 312.537903,512.059692 
	C309.108551,514.829468 305.989166,517.488831 302.869812,520.148193 
	C302.869812,520.148193 302.418945,520.217346 302.193451,520.253052 
	C269.043976,506.957367 245.681412,484.051544 232.568054,450.912781 
	C231.349594,447.833618 230.376785,444.657227 229.104523,441.181824 
	C228.919159,440.837677 229.049316,440.383545 229.111740,440.155334 
	C232.172256,437.363708 235.170334,434.800232 238.476990,432.130493 
z"/>
<path fill="#424AAC" opacity="1.000000" stroke="none" 
	d="
M309.193146,367.878174 
	C309.193146,367.878143 309.607819,367.865021 309.812988,367.834290 
	C323.107147,375.567963 336.196167,383.332367 349.285156,391.096771 
	C349.206940,391.481934 349.128723,391.867096 349.050507,392.252228 
	C335.884521,390.208313 322.718506,388.164398 309.123993,386.053986 
	C312.009155,379.300323 303.800964,379.662842 302.606689,375.101959 
	C302.294250,374.449890 302.196930,374.041962 302.367188,373.145447 
	C304.820923,371.063965 307.007050,369.471069 309.193146,367.878174 
z"/>
<path fill="#454793" opacity="1.000000" stroke="none" 
	d="
M312.847839,511.949249 
	C312.847839,511.949249 312.676331,511.563324 312.609222,511.361084 
	C315.910431,507.928497 319.278778,504.698212 322.829102,501.182648 
	C325.712036,501.232758 328.412933,501.568146 331.519897,501.884888 
	C333.678009,502.081451 335.430023,502.296661 337.506104,502.651703 
	C338.412994,503.675720 338.790619,504.945984 339.611450,505.382233 
	C345.550140,508.538452 351.578369,511.526184 357.443451,514.935303 
	C355.500397,515.534058 353.698120,515.842590 351.882874,515.983154 
	C338.628876,517.009399 325.667145,515.157043 312.847839,511.949249 
z"/>
<path fill="#424AAC" opacity="1.000000" stroke="none" 
	d="
M388.148651,393.283966 
	C387.492340,390.369324 387.159851,387.272888 386.769501,383.637726 
	C390.194427,384.434875 392.873260,385.058380 396.623291,385.931183 
	C393.465027,388.709778 390.968750,390.905975 388.148651,393.283966 
z"/>
<path fill="#C52F3B" opacity="1.000000" stroke="none" 
	d="
M312.537903,512.059692 
	C325.667145,515.157043 338.628876,517.009399 351.882874,515.983154 
	C353.698120,515.842590 355.500397,515.534058 357.713257,515.164551 
	C358.559479,515.084106 359.001129,515.142456 359.778748,515.237671 
	C365.936096,517.662659 371.757507,520.050720 377.876526,522.651245 
	C353.007416,530.397400 328.097595,529.414185 303.146729,520.378784 
	C305.989166,517.488831 309.108551,514.829468 312.537903,512.059692 
z"/>
<path fill="#454793" opacity="1.000000" stroke="none" 
	d="
M308.991211,367.574524 
	C307.007050,369.471069 304.820923,371.063965 302.353760,372.830994 
	C302.072723,370.225098 302.072723,367.445068 302.072723,363.461395 
	C305.242462,365.259186 307.015869,366.265015 308.991211,367.574524 
z"/>
</svg>