<svg version="1.1" id="Layer_1" xmlns="http://www.w3.org/2000/svg" xmlns:xlink="http://www.w3.org/1999/xlink" x="0px" y="0px"
	 width="100%" viewBox="0 0 894 1006" enable-background="new 0 0 894 1006" xml:space="preserve">
<path fill="#ffffff" opacity="0.000000" stroke="none" 
	d="
M575.000000,1007.000000 
	C383.333344,1007.000000 192.166672,1007.000000 1.000000,1007.000000 
	C1.000000,671.666687 1.000000,336.333344 1.000000,1.000000 
	C299.000000,1.000000 597.000000,1.000000 895.000000,1.000000 
	C895.000000,336.333344 895.000000,671.666687 895.000000,1007.000000 
	C788.500000,1007.000000 682.000000,1007.000000 575.000000,1007.000000 
M743.298767,459.834717 
	C750.503845,452.738678 758.489868,446.268799 764.772278,438.432983 
	C786.465698,411.375763 796.051392,380.488159 793.184998,345.625305 
	C791.716736,327.767090 787.154358,311.062744 778.921753,295.267639 
	C768.308533,274.905182 753.070923,258.610901 733.987915,246.128510 
	C710.635071,230.853149 684.580811,224.663223 656.827942,224.983154 
	C646.498840,225.102234 636.165344,224.891022 625.837830,225.066177 
	C622.499451,225.122787 620.981384,224.020142 619.683594,220.806000 
	C606.399170,187.904236 586.025574,160.260742 557.925232,138.419144 
	C522.546753,110.920509 482.269745,97.503769 437.671722,97.159279 
	C427.462402,97.080421 417.213928,98.761024 407.025513,99.982407 
	C386.134033,102.486885 366.464142,109.362915 348.096039,119.199577 
	C326.472321,130.779709 307.025635,145.426559 290.970947,164.369003 
	C280.050201,177.254028 270.424255,190.947433 263.086884,206.083008 
	C253.839554,225.158310 247.415482,245.207886 244.904388,266.378540 
	C244.441177,270.283936 242.895599,272.168304 238.231140,272.143402 
	C222.442169,272.059052 206.480377,271.274719 190.892456,273.221954 
	C154.179291,277.808136 127.003883,297.549225 109.693985,330.011261 
	C99.124870,349.832001 95.849373,371.371063 98.883850,393.825623 
	C102.741638,422.372620 115.589241,445.830780 138.224060,463.618500 
	C158.068970,479.213715 180.602905,487.111328 206.113617,487.085663 
	C358.904785,486.931793 511.696228,487.019043 664.487549,486.964447 
	C670.114075,486.962433 675.793762,486.706268 681.357483,485.922058 
	C704.025452,482.727020 724.503601,474.162750 743.298767,459.834717 
M674.981812,619.536255 
	C668.319885,629.984131 666.100464,641.257751 668.664185,653.427734 
	C670.000549,659.771545 668.779297,661.181030 662.664246,660.229492 
	C636.520996,656.161499 610.377808,652.092407 584.242065,647.976624 
	C547.124268,642.131409 510.014069,636.237610 472.897797,630.382507 
	C465.232697,629.173218 457.555145,628.042847 449.939880,626.884705 
	C445.381989,646.052979 456.916840,665.903381 475.492279,671.208191 
	C481.497040,672.923035 487.700104,673.943665 493.946350,675.311218 
	C493.946350,676.453064 493.951904,677.272583 493.945496,678.091980 
	C493.795807,697.258972 504.625092,711.595947 523.201355,716.451843 
	C528.290100,717.782104 533.549561,718.459106 538.848267,719.458008 
	C537.956726,742.257202 549.376343,755.786926 570.940674,762.217896 
	C542.532959,788.550049 514.739136,814.313171 486.787567,840.222473 
	C497.828583,850.790894 510.216583,854.169739 524.486206,850.950928 
	C528.308044,850.088806 530.912048,848.488403 531.899170,844.142273 
	C533.333313,837.827393 535.580933,831.697083 537.485779,825.489380 
	C538.875244,820.961304 540.271423,816.435242 541.642639,811.979614 
	C588.498901,844.820068 637.032776,850.337952 685.242310,818.755737 
	C732.890015,787.541626 747.344421,741.314758 736.579346,685.855530 
	C737.426636,685.346313 738.685852,684.594055 739.940735,683.834595 
	C765.196167,668.549805 769.709229,633.044800 749.295471,612.183899 
	C727.874451,590.293579 691.490112,594.414673 674.981812,619.536255 
M507.131805,606.302307 
	C509.783325,607.922424 512.434814,609.542603 514.908386,611.054016 
	C513.666870,616.068848 512.505493,620.760010 511.266144,625.765869 
	C559.061218,633.282227 605.815125,640.634827 652.568970,647.987427 
	C652.665833,647.634338 652.762695,647.281250 652.859619,646.928101 
	C599.565369,615.775513 546.271118,584.622925 493.020416,553.495789 
	C482.256073,568.505920 485.064392,594.512939 507.131805,606.302307 
M767.700562,647.740417 
	C767.910095,649.228149 768.119568,650.715881 768.329102,652.203613 
	C769.639771,651.644653 771.183533,651.361694 772.224121,650.482910 
	C780.209900,643.738281 788.105652,636.886719 796.009766,630.045776 
	C797.542114,628.719543 798.988953,627.294434 801.262085,625.184631 
	C789.312988,622.388916 778.468445,619.851624 767.013855,617.171631 
	C770.237244,627.621033 770.471802,637.265503 767.700562,647.740417 
M93.059219,886.776123 
	C92.447014,885.464661 92.045853,883.948975 91.094521,882.965576 
	C90.807762,882.669250 88.646957,883.589111 87.996292,884.446411 
	C87.544716,885.041443 88.016861,887.306091 88.407349,887.396667 
	C89.773468,887.713440 91.283302,887.410278 93.059219,886.776123 
M335.430298,957.133179 
	C335.299011,954.534180 334.216705,952.767212 331.442902,954.009399 
	C330.589111,954.391785 329.711243,956.739075 330.117401,957.544983 
	C331.433716,960.156799 333.404907,959.795410 335.430298,957.133179 
M369.705566,937.066040 
	C370.942719,937.754822 372.135620,938.794128 373.438934,938.958496 
	C373.954346,939.023499 375.177185,937.159668 375.216614,936.140686 
	C375.247528,935.342346 373.581879,933.678284 373.307434,933.802856 
	C371.922668,934.431580 370.746826,935.520386 369.705566,937.066040 
M134.891037,927.356445 
	C136.084702,926.379578 137.374557,925.484802 138.360031,924.330200 
	C138.495346,924.171692 137.228592,922.176392 136.412064,922.010437 
	C135.434067,921.811646 133.365723,922.575134 133.314346,923.079285 
	C133.181763,924.380066 133.899765,925.767456 134.891037,927.356445 
M421.141388,904.209900 
	C423.783478,903.086182 424.394318,901.231384 422.261658,899.316223 
	C421.602509,898.724487 419.104675,898.997498 418.512390,899.732117 
	C416.611481,902.089844 417.912689,903.629578 421.141388,904.209900 
M76.944084,876.695557 
	C78.305061,877.100281 79.688911,877.829895 81.014824,877.736450 
	C81.489342,877.703003 82.270020,875.597290 82.081276,874.593323 
	C81.929741,873.787170 79.944641,872.512085 79.771477,872.654968 
	C78.597557,873.623596 77.688911,874.913696 76.944084,876.695557 
M70.779961,863.631775 
	C69.239647,863.658508 67.668304,863.539001 66.188911,863.852905 
	C65.935768,863.906616 65.682289,866.056030 66.141624,866.793518 
	C66.622231,867.565186 68.661919,868.366577 68.812553,868.179993 
	C69.761246,867.005005 70.373672,865.558533 70.779961,863.631775 
M184.806915,954.070496 
	C186.076538,956.549316 187.934341,957.195862 189.742432,954.948547 
	C190.325287,954.223999 189.998962,951.673706 189.271347,951.191406 
	C186.956406,949.656616 185.203766,950.530701 184.806915,954.070496 
M113.152893,908.610840 
	C113.831192,907.322693 114.853996,906.074707 115.011375,904.725769 
	C115.070946,904.215210 113.157623,903.037781 112.098625,902.979370 
	C111.329765,902.937012 109.687088,904.606384 109.810982,904.873230 
	C110.467125,906.286377 111.559090,907.497253 113.152893,908.610840 
M45.688782,848.986450 
	C48.255672,848.326355 49.707634,846.878113 47.865883,844.425354 
	C47.306122,843.679932 44.881893,843.335815 44.155155,843.898132 
	C41.800373,845.720215 42.519382,847.564758 45.688782,848.986450 
M158.762085,942.330322 
	C161.067215,944.042603 162.968506,943.572937 163.580933,940.831970 
	C163.772430,939.974976 162.294357,937.929993 161.374252,937.790710 
	C158.487854,937.353516 157.669250,939.183716 158.762085,942.330322 
M104.413811,895.492920 
	C103.391106,893.106812 101.790993,891.743103 99.570122,893.896851 
	C98.901520,894.545227 98.876770,897.001648 99.531921,897.660645 
	C101.671043,899.812378 103.351463,898.706177 104.413811,895.492920 
M455.413849,872.683655 
	C455.051178,874.065308 454.398193,875.468445 454.497681,876.816040 
	C454.528687,877.235779 456.691925,877.934326 457.700531,877.708374 
	C458.516418,877.525635 459.741333,875.521118 459.625549,875.395752 
	C458.567291,874.250427 457.255280,873.339600 455.413849,872.683655 
M54.696678,856.859375 
	C56.435104,859.187195 58.385784,859.278564 59.711098,856.741028 
	C60.129570,855.939819 59.261795,853.551575 58.410763,853.172058 
	C55.722363,851.973145 54.490280,853.585205 54.696678,856.859375 
M430.937378,888.972717 
	C428.519470,890.440430 428.013489,892.333801 430.475891,893.964966 
	C431.238098,894.469849 433.634277,893.930847 434.140015,893.139709 
	C435.815063,890.519104 434.199005,889.243225 430.937378,888.972717 
M306.999207,965.538086 
	C306.589691,962.947998 305.313751,961.350342 302.696930,962.924927 
	C301.913086,963.396545 301.344055,965.741150 301.824402,966.517761 
	C303.353851,968.990784 305.275665,968.499756 306.999207,965.538086 
M319.192749,958.579285 
	C316.444794,958.514343 314.915039,959.722473 316.139099,962.437866 
	C316.524048,963.291748 318.820465,964.177185 319.625580,963.784485 
	C322.254395,962.502197 321.871826,960.567871 319.192749,958.579285 
M203.462830,960.857300 
	C205.014526,958.693726 205.114960,956.692444 202.135239,956.078796 
	C201.223114,955.890930 199.190002,957.215332 199.012405,958.112793 
	C198.429871,961.056519 200.250183,961.814392 203.462830,960.857300 
M232.278152,968.311340 
	C233.664215,965.938354 233.395035,963.953003 230.410629,963.665588 
	C229.451324,963.573181 227.478088,965.209839 227.423752,966.140442 
	C227.248535,969.140930 229.282898,969.575012 232.278152,968.311340 
M260.858307,972.222778 
	C261.347351,970.875488 262.128754,969.532349 262.147675,968.178467 
	C262.153351,967.771301 259.977325,966.907898 258.913452,967.057129 
	C258.171631,967.161133 256.906403,969.079041 257.115570,969.415588 
	C257.845886,970.590698 259.115356,971.430664 260.858307,972.222778 
M126.787514,916.164368 
	C126.796356,913.402222 125.477730,911.893799 122.801384,913.000427 
	C121.925926,913.362488 120.958031,915.786377 121.368141,916.548767 
	C122.660782,918.951660 124.644905,919.117004 126.787514,916.164368 
M217.586533,960.795105 
	C214.993469,959.361267 213.300385,960.314819 213.135361,963.040527 
	C213.080841,963.941101 214.799149,964.949036 215.706863,965.907898 
	C216.512360,964.374634 217.317841,962.841309 217.586533,960.795105 
M247.754562,969.164612 
	C246.907501,968.055115 246.240494,966.633545 245.124695,965.989990 
	C244.679337,965.733032 242.980164,967.016907 242.360046,967.940552 
	C242.006653,968.467041 242.700470,970.467773 242.884872,970.462585 
	C244.422791,970.419189 245.951904,970.063599 247.754562,969.164612 
M290.167816,965.115051 
	C287.155151,964.868896 286.166718,966.538147 287.141266,969.018433 
	C287.465637,969.843994 289.771484,970.755615 290.568359,970.372681 
	C293.233337,969.092163 292.718048,967.140259 290.167816,965.115051 
M176.725967,948.252075 
	C177.350830,945.339172 175.813873,944.075562 173.267654,944.628540 
	C172.380234,944.821289 171.056900,947.165039 171.371185,947.952271 
	C172.311646,950.308289 174.183701,951.107300 176.725967,948.252075 
M362.433441,943.599548 
	C361.483795,941.048157 359.808899,939.914307 357.622406,942.001343 
	C356.956177,942.637268 356.951874,945.113647 357.616669,945.786072 
	C359.779510,947.973877 361.429413,946.716675 362.433441,943.599548 
M145.007660,932.549438 
	C145.290497,935.288330 146.742584,936.605835 149.253265,935.156372 
	C150.069229,934.685181 150.723419,932.244141 150.237000,931.520935 
	C148.721893,929.268188 146.758514,929.310120 145.007660,932.549438 
M382.020172,928.414307 
	C382.791870,930.919800 384.287933,932.365479 386.700592,930.501892 
	C387.432343,929.936707 387.727112,927.494507 387.149628,926.786316 
	C385.245239,924.450439 383.432709,925.438416 382.020172,928.414307 
M408.625824,907.973145 
	C406.213531,908.998108 404.877563,910.585266 407.149933,912.766968 
	C407.827240,913.417053 410.195526,913.406311 410.876953,912.750549 
	C413.156860,910.556702 411.748718,908.993530 408.625824,907.973145 
M441.005005,882.546326 
	C441.452148,885.051514 442.586517,886.850769 445.284027,885.177490 
	C446.086365,884.679810 446.683075,882.376160 446.215942,881.576782 
	C444.678802,878.946350 442.774384,879.694885 441.005005,882.546326 
M31.043028,836.716309 
	C31.340395,839.380005 32.727173,840.831909 35.288101,839.485413 
	C36.110603,839.052917 36.823990,836.634338 36.359886,835.862671 
	C34.890827,833.420044 32.943447,833.738953 31.043028,836.716309 
M20.213987,831.404297 
	C21.538973,830.870422 23.060129,830.559875 24.072676,829.670349 
	C24.387383,829.393799 23.604826,827.215149 22.796497,826.534302 
	C22.220922,826.049500 19.956398,826.372925 19.842251,826.754028 
	C19.446436,828.075500 19.660772,829.579651 20.213987,831.404297 
M5.623076,822.160034 
	C6.659985,824.556213 8.300664,825.718689 10.380351,823.554565 
	C11.017766,822.891296 10.958376,820.464966 10.289591,819.840820 
	C8.103167,817.800110 6.497533,819.012634 5.623076,822.160034 
M400.025909,919.548218 
	C399.093109,917.027832 397.481628,915.863586 395.307251,918.005188 
	C394.657776,918.644775 394.633636,920.988831 395.268463,921.666870 
	C397.366882,923.908630 398.987152,922.691956 400.025909,919.548218 
M274.410095,972.146973 
	C277.384003,972.032166 278.307281,970.338318 277.001648,967.934509 
	C276.580963,967.160034 274.153564,966.571045 273.381500,967.060425 
	C271.014160,968.560974 271.307068,970.475098 274.410095,972.146973 
M347.176880,953.216064 
	C347.484375,951.636292 347.791870,950.056519 348.099396,948.476746 
	C346.658173,948.684814 345.216919,948.892883 343.775696,949.100952 
	C344.684723,950.560425 345.593750,952.019958 347.176880,953.216064 
z"/>
<path fill="#B3DDF5" opacity="1.000000" stroke="none" 
	d="
M742.986145,460.006226 
	C724.503601,474.162750 704.025452,482.727020 681.357483,485.922058 
	C675.793762,486.706268 670.114075,486.962433 664.487549,486.964447 
	C511.696228,487.019043 358.904785,486.931793 206.113617,487.085663 
	C180.602905,487.111328 158.068970,479.213715 138.224060,463.618500 
	C115.589241,445.830780 102.741638,422.372620 98.883850,393.825623 
	C95.849373,371.371063 99.124870,349.832001 109.693985,330.011261 
	C127.003883,297.549225 154.179291,277.808136 190.892456,273.221954 
	C206.480377,271.274719 222.442169,272.059052 238.231140,272.143402 
	C242.895599,272.168304 244.441177,270.283936 244.904388,266.378540 
	C247.415482,245.207886 253.839554,225.158310 263.086884,206.083008 
	C270.424255,190.947433 280.050201,177.254028 290.970947,164.369003 
	C307.025635,145.426559 326.472321,130.779709 348.096039,119.199577 
	C366.464142,109.362915 386.134033,102.486885 407.025513,99.982407 
	C417.213928,98.761024 427.462402,97.080421 437.671722,97.159279 
	C482.269745,97.503769 522.546753,110.920509 557.925232,138.419144 
	C586.025574,160.260742 606.399170,187.904236 619.683594,220.806000 
	C620.981384,224.020142 622.499451,225.122787 625.837830,225.066177 
	C636.165344,224.891022 646.498840,225.102234 656.827942,224.983154 
	C684.580811,224.663223 710.635071,230.853149 733.987915,246.128510 
	C753.070923,258.610901 768.308533,274.905182 778.921753,295.267639 
	C787.154358,311.062744 791.716736,327.767090 793.184998,345.625305 
	C796.051392,380.488159 786.465698,411.375763 764.772278,438.432983 
	C758.489868,446.268799 750.503845,452.738678 742.986145,460.006226 
z"/>
<path fill="#DC4E4B" opacity="1.000000" stroke="none" 
	d="
M675.185547,619.237915 
	C691.490112,594.414673 727.874451,590.293579 749.295471,612.183899 
	C769.709229,633.044800 765.196167,668.549805 739.940735,683.834595 
	C738.685852,684.594055 737.426636,685.346313 736.579346,685.855530 
	C747.344421,741.314758 732.890015,787.541626 685.242310,818.755737 
	C637.032776,850.337952 588.498901,844.820068 541.642639,811.979614 
	C540.271423,816.435242 538.875244,820.961304 537.485779,825.489380 
	C535.580933,831.697083 533.333313,837.827393 531.899170,844.142273 
	C530.912048,848.488403 528.308044,850.088806 524.486206,850.950928 
	C510.216583,854.169739 497.828583,850.790894 486.787567,840.222473 
	C514.739136,814.313171 542.532959,788.550049 570.940674,762.217896 
	C549.376343,755.786926 537.956726,742.257202 538.848267,719.458008 
	C533.549561,718.459106 528.290100,717.782104 523.201355,716.451843 
	C504.625092,711.595947 493.795807,697.258972 493.945496,678.091980 
	C493.951904,677.272583 493.946350,676.453064 493.946350,675.311218 
	C487.700104,673.943665 481.497040,672.923035 475.492279,671.208191 
	C456.916840,665.903381 445.381989,646.052979 449.939880,626.884705 
	C457.555145,628.042847 465.232697,629.173218 472.897797,630.382507 
	C510.014069,636.237610 547.124268,642.131409 584.242065,647.976624 
	C610.377808,652.092407 636.520996,656.161499 662.664246,660.229492 
	C668.779297,661.181030 670.000549,659.771545 668.664185,653.427734 
	C666.100464,641.257751 668.319885,629.984131 675.185547,619.237915 
z"/>
<path fill="#293D93" opacity="1.000000" stroke="none" 
	d="
M506.799072,606.149780 
	C485.064392,594.512939 482.256073,568.505920 493.020416,553.495789 
	C546.271118,584.622925 599.565369,615.775513 652.859619,646.928101 
	C652.762695,647.281250 652.665833,647.634338 652.568970,647.987427 
	C605.815125,640.634827 559.061218,633.282227 511.266144,625.765869 
	C512.505493,620.760010 513.666870,616.068848 514.908386,611.054016 
	C512.434814,609.542603 509.783325,607.922424 506.799072,606.149780 
z"/>
<path fill="#304497" opacity="1.000000" stroke="none" 
	d="
M767.799683,647.346313 
	C770.471802,637.265503 770.237244,627.621033 767.013855,617.171631 
	C778.468445,619.851624 789.312988,622.388916 801.262085,625.184631 
	C798.988953,627.294434 797.542114,628.719543 796.009766,630.045776 
	C788.105652,636.886719 780.209900,643.738281 772.224121,650.482910 
	C771.183533,651.361694 769.639771,651.644653 768.329102,652.203613 
	C768.119568,650.715881 767.910095,649.228149 767.799683,647.346313 
z"/>
<path fill="#374C9C" opacity="1.000000" stroke="none" 
	d="
M92.898880,887.059387 
	C91.283302,887.410278 89.773468,887.713440 88.407349,887.396667 
	C88.016861,887.306091 87.544716,885.041443 87.996292,884.446411 
	C88.646957,883.589111 90.807762,882.669250 91.094521,882.965576 
	C92.045853,883.948975 92.447014,885.464661 92.898880,887.059387 
z"/>
<path fill="#374C9C" opacity="1.000000" stroke="none" 
	d="
M335.311035,957.435547 
	C333.404907,959.795410 331.433716,960.156799 330.117401,957.544983 
	C329.711243,956.739075 330.589111,954.391785 331.442902,954.009399 
	C334.216705,952.767212 335.299011,954.534180 335.311035,957.435547 
z"/>
<path fill="#374C9C" opacity="1.000000" stroke="none" 
	d="
M369.601593,936.756897 
	C370.746826,935.520386 371.922668,934.431580 373.307434,933.802856 
	C373.581879,933.678284 375.247528,935.342346 375.216614,936.140686 
	C375.177185,937.159668 373.954346,939.023499 373.438934,938.958496 
	C372.135620,938.794128 370.942719,937.754822 369.601593,936.756897 
z"/>
<path fill="#374C9C" opacity="1.000000" stroke="none" 
	d="
M134.584518,927.238403 
	C133.899765,925.767456 133.181763,924.380066 133.314346,923.079285 
	C133.365723,922.575134 135.434067,921.811646 136.412064,922.010437 
	C137.228592,922.176392 138.495346,924.171692 138.360031,924.330200 
	C137.374557,925.484802 136.084702,926.379578 134.584518,927.238403 
z"/>
<path fill="#374C9C" opacity="1.000000" stroke="none" 
	d="
M420.829346,904.275269 
	C417.912689,903.629578 416.611481,902.089844 418.512390,899.732117 
	C419.104675,898.997498 421.602509,898.724487 422.261658,899.316223 
	C424.394318,901.231384 423.783478,903.086182 420.829346,904.275269 
z"/>
<path fill="#374C9C" opacity="1.000000" stroke="none" 
	d="
M76.819290,876.397705 
	C77.688911,874.913696 78.597557,873.623596 79.771477,872.654968 
	C79.944641,872.512085 81.929741,873.787170 82.081276,874.593323 
	C82.270020,875.597290 81.489342,877.703003 81.014824,877.736450 
	C79.688911,877.829895 78.305061,877.100281 76.819290,876.397705 
z"/>
<path fill="#374C9C" opacity="1.000000" stroke="none" 
	d="
M70.938591,863.916748 
	C70.373672,865.558533 69.761246,867.005005 68.812553,868.179993 
	C68.661919,868.366577 66.622231,867.565186 66.141624,866.793518 
	C65.682289,866.056030 65.935768,863.906616 66.188911,863.852905 
	C67.668304,863.539001 69.239647,863.658508 70.938591,863.916748 
z"/>
<path fill="#374C9C" opacity="1.000000" stroke="none" 
	d="
M184.787949,953.753906 
	C185.203766,950.530701 186.956406,949.656616 189.271347,951.191406 
	C189.998962,951.673706 190.325287,954.223999 189.742432,954.948547 
	C187.934341,957.195862 186.076538,956.549316 184.787949,953.753906 
z"/>
<path fill="#374C9C" opacity="1.000000" stroke="none" 
	d="
M112.826447,908.694580 
	C111.559090,907.497253 110.467125,906.286377 109.810982,904.873230 
	C109.687088,904.606384 111.329765,902.937012 112.098625,902.979370 
	C113.157623,903.037781 115.070946,904.215210 115.011375,904.725769 
	C114.853996,906.074707 113.831192,907.322693 112.826447,908.694580 
z"/>
<path fill="#374C9C" opacity="1.000000" stroke="none" 
	d="
M45.335930,848.929565 
	C42.519382,847.564758 41.800373,845.720215 44.155155,843.898132 
	C44.881893,843.335815 47.306122,843.679932 47.865883,844.425354 
	C49.707634,846.878113 48.255672,848.326355 45.335930,848.929565 
z"/>
<path fill="#374C9C" opacity="1.000000" stroke="none" 
	d="
M158.523987,942.068542 
	C157.669250,939.183716 158.487854,937.353516 161.374252,937.790710 
	C162.294357,937.929993 163.772430,939.974976 163.580933,940.831970 
	C162.968506,943.572937 161.067215,944.042603 158.523987,942.068542 
z"/>
<path fill="#374C9C" opacity="1.000000" stroke="none" 
	d="
M104.378220,895.834045 
	C103.351463,898.706177 101.671043,899.812378 99.531921,897.660645 
	C98.876770,897.001648 98.901520,894.545227 99.570122,893.896851 
	C101.790993,891.743103 103.391106,893.106812 104.378220,895.834045 
z"/>
<path fill="#374C9C" opacity="1.000000" stroke="none" 
	d="
M455.715576,872.521973 
	C457.255280,873.339600 458.567291,874.250427 459.625549,875.395752 
	C459.741333,875.521118 458.516418,877.525635 457.700531,877.708374 
	C456.691925,877.934326 454.528687,877.235779 454.497681,876.816040 
	C454.398193,875.468445 455.051178,874.065308 455.715576,872.521973 
z"/>
<path fill="#374C9C" opacity="1.000000" stroke="none" 
	d="
M54.534035,856.554077 
	C54.490280,853.585205 55.722363,851.973145 58.410763,853.172058 
	C59.261795,853.551575 60.129570,855.939819 59.711098,856.741028 
	C58.385784,859.278564 56.435104,859.187195 54.534035,856.554077 
z"/>
<path fill="#374C9C" opacity="1.000000" stroke="none" 
	d="
M431.266052,888.893799 
	C434.199005,889.243225 435.815063,890.519104 434.140015,893.139709 
	C433.634277,893.930847 431.238098,894.469849 430.475891,893.964966 
	C428.013489,892.333801 428.519470,890.440430 431.266052,888.893799 
z"/>
<path fill="#374C9C" opacity="1.000000" stroke="none" 
	d="
M306.942322,965.920044 
	C305.275665,968.499756 303.353851,968.990784 301.824402,966.517761 
	C301.344055,965.741150 301.913086,963.396545 302.696930,962.924927 
	C305.313751,961.350342 306.589691,962.947998 306.942322,965.920044 
z"/>
<path fill="#374C9C" opacity="1.000000" stroke="none" 
	d="
M319.506653,958.695984 
	C321.871826,960.567871 322.254395,962.502197 319.625580,963.784485 
	C318.820465,964.177185 316.524048,963.291748 316.139099,962.437866 
	C314.915039,959.722473 316.444794,958.514343 319.506653,958.695984 
z"/>
<path fill="#374C9C" opacity="1.000000" stroke="none" 
	d="
M203.167786,961.019653 
	C200.250183,961.814392 198.429871,961.056519 199.012405,958.112793 
	C199.190002,957.215332 201.223114,955.890930 202.135239,956.078796 
	C205.114960,956.692444 205.014526,958.693726 203.167786,961.019653 
z"/>
<path fill="#374C9C" opacity="1.000000" stroke="none" 
	d="
M232.024475,968.544434 
	C229.282898,969.575012 227.248535,969.140930 227.423752,966.140442 
	C227.478088,965.209839 229.451324,963.573181 230.410629,963.665588 
	C233.395035,963.953003 233.664215,965.938354 232.024475,968.544434 
z"/>
<path fill="#374C9C" opacity="1.000000" stroke="none" 
	d="
M260.519135,972.310425 
	C259.115356,971.430664 257.845886,970.590698 257.115570,969.415588 
	C256.906403,969.079041 258.171631,967.161133 258.913452,967.057129 
	C259.977325,966.907898 262.153351,967.771301 262.147675,968.178467 
	C262.128754,969.532349 261.347351,970.875488 260.519135,972.310425 
z"/>
<path fill="#374C9C" opacity="1.000000" stroke="none" 
	d="
M126.625702,916.474854 
	C124.644905,919.117004 122.660782,918.951660 121.368141,916.548767 
	C120.958031,915.786377 121.925926,913.362488 122.801384,913.000427 
	C125.477730,911.893799 126.796356,913.402222 126.625702,916.474854 
z"/>
<path fill="#374C9C" opacity="1.000000" stroke="none" 
	d="
M217.854935,961.051575 
	C217.317841,962.841309 216.512360,964.374634 215.706879,965.907898 
	C214.799149,964.949036 213.080841,963.941101 213.135361,963.040527 
	C213.300385,960.314819 214.993469,959.361267 217.854935,961.051575 
z"/>
<path fill="#374C9C" opacity="1.000000" stroke="none" 
	d="
M247.619110,969.483398 
	C245.951904,970.063599 244.422791,970.419189 242.884872,970.462585 
	C242.700470,970.467773 242.006653,968.467041 242.360046,967.940552 
	C242.980164,967.016907 244.679337,965.733032 245.124695,965.989990 
	C246.240494,966.633545 246.907501,968.055115 247.619110,969.483398 
z"/>
<path fill="#374C9C" opacity="1.000000" stroke="none" 
	d="
M290.491821,965.233887 
	C292.718048,967.140259 293.233337,969.092163 290.568359,970.372681 
	C289.771484,970.755615 287.465637,969.843994 287.141266,969.018433 
	C286.166718,966.538147 287.155151,964.868896 290.491821,965.233887 
z"/>
<path fill="#374C9C" opacity="1.000000" stroke="none" 
	d="
M176.521942,948.574768 
	C174.183701,951.107300 172.311646,950.308289 171.371185,947.952271 
	C171.056900,947.165039 172.380234,944.821289 173.267654,944.628540 
	C175.813873,944.075562 177.350830,945.339172 176.521942,948.574768 
z"/>
<path fill="#374C9C" opacity="1.000000" stroke="none" 
	d="
M362.455505,943.947388 
	C361.429413,946.716675 359.779510,947.973877 357.616669,945.786072 
	C356.951874,945.113647 356.956177,942.637268 357.622406,942.001343 
	C359.808899,939.914307 361.483795,941.048157 362.455505,943.947388 
z"/>
<path fill="#374C9C" opacity="1.000000" stroke="none" 
	d="
M145.105133,932.172302 
	C146.758514,929.310120 148.721893,929.268188 150.237000,931.520935 
	C150.723419,932.244141 150.069229,934.685181 149.253265,935.156372 
	C146.742584,936.605835 145.290497,935.288330 145.105133,932.172302 
z"/>
<path fill="#374C9C" opacity="1.000000" stroke="none" 
	d="
M382.058990,928.068726 
	C383.432709,925.438416 385.245239,924.450439 387.149628,926.786316 
	C387.727112,927.494507 387.432343,929.936707 386.700592,930.501892 
	C384.287933,932.365479 382.791870,930.919800 382.058990,928.068726 
z"/>
<path fill="#374C9C" opacity="1.000000" stroke="none" 
	d="
M409.007507,907.963379 
	C411.748718,908.993530 413.156860,910.556702 410.876953,912.750549 
	C410.195526,913.406311 407.827240,913.417053 407.149933,912.766968 
	C404.877563,910.585266 406.213531,908.998108 409.007507,907.963379 
z"/>
<path fill="#374C9C" opacity="1.000000" stroke="none" 
	d="
M441.078369,882.164001 
	C442.774384,879.694885 444.678802,878.946350 446.215942,881.576782 
	C446.683075,882.376160 446.086365,884.679810 445.284027,885.177490 
	C442.586517,886.850769 441.452148,885.051514 441.078369,882.164001 
z"/>
<path fill="#374C9C" opacity="1.000000" stroke="none" 
	d="
M31.175772,836.359619 
	C32.943447,833.738953 34.890827,833.420044 36.359886,835.862671 
	C36.823990,836.634338 36.110603,839.052917 35.288101,839.485413 
	C32.727173,840.831909 31.340395,839.380005 31.175772,836.359619 
z"/>
<path fill="#374C9C" opacity="1.000000" stroke="none" 
	d="
M19.928467,831.209351 
	C19.660772,829.579651 19.446436,828.075500 19.842251,826.754028 
	C19.956398,826.372925 22.220922,826.049500 22.796497,826.534302 
	C23.604826,827.215149 24.387383,829.393799 24.072676,829.670349 
	C23.060129,830.559875 21.538973,830.870422 19.928467,831.209351 
z"/>
<path fill="#304497" opacity="1.000000" stroke="none" 
	d="
M5.596967,821.816956 
	C6.497533,819.012634 8.103167,817.800110 10.289591,819.840820 
	C10.958376,820.464966 11.017766,822.891296 10.380351,823.554565 
	C8.300664,825.718689 6.659985,824.556213 5.596967,821.816956 
z"/>
<path fill="#374C9C" opacity="1.000000" stroke="none" 
	d="
M400.036499,919.927490 
	C398.987152,922.691956 397.366882,923.908630 395.268463,921.666870 
	C394.633636,920.988831 394.657776,918.644775 395.307251,918.005188 
	C397.481628,915.863586 399.093109,917.027832 400.036499,919.927490 
z"/>
<path fill="#374C9C" opacity="1.000000" stroke="none" 
	d="
M274.022644,972.087280 
	C271.307068,970.475098 271.014160,968.560974 273.381500,967.060425 
	C274.153564,966.571045 276.580963,967.160034 277.001648,967.934509 
	C278.307281,970.338318 277.384003,972.032166 274.022644,972.087280 
z"/>
<path fill="#374C9C" opacity="1.000000" stroke="none" 
	d="
M346.839813,953.347778 
	C345.593750,952.019958 344.684723,950.560425 343.775696,949.100952 
	C345.216919,948.892883 346.658173,948.684814 348.099396,948.476746 
	C347.791870,950.056519 347.484375,951.636292 346.839813,953.347778 
z"/>
</svg>